<mxfile host="app.diagrams.net" agent="Mozilla/5.0 (Macintosh; Intel Mac OS X 10_15_7) AppleWebKit/537.36 (KHTML, like Gecko) Chrome/127.0.0.0 Safari/537.36 Edg/127.0.0.0" version="24.7.6" pages="2">
  <diagram name="E-R" id="P4c2LFoIFefQd_mU0VDK">
    <mxGraphModel grid="1" page="1" gridSize="10" guides="1" tooltips="1" connect="1" arrows="1" fold="1" pageScale="1" pageWidth="850" pageHeight="1100" math="0" shadow="0">
      <root>
        <mxCell id="0" />
        <mxCell id="1" parent="0" />
        <mxCell id="ADkrZxMqCA1YCd4Kgob1-9" style="rounded=0;orthogonalLoop=1;jettySize=auto;html=1;" edge="1" parent="1" source="u74EEwaIPu6hB99J040Y-1" target="ADkrZxMqCA1YCd4Kgob1-8">
          <mxGeometry relative="1" as="geometry" />
        </mxCell>
        <mxCell id="ADkrZxMqCA1YCd4Kgob1-10" style="rounded=0;orthogonalLoop=1;jettySize=auto;html=1;exitX=0;exitY=0.5;exitDx=0;exitDy=0;" edge="1" parent="1" source="u74EEwaIPu6hB99J040Y-1" target="ADkrZxMqCA1YCd4Kgob1-7">
          <mxGeometry relative="1" as="geometry" />
        </mxCell>
        <mxCell id="ADkrZxMqCA1YCd4Kgob1-11" style="rounded=0;orthogonalLoop=1;jettySize=auto;html=1;exitX=0;exitY=0.5;exitDx=0;exitDy=0;entryX=1;entryY=1;entryDx=0;entryDy=0;strokeColor=none;" edge="1" parent="1" source="u74EEwaIPu6hB99J040Y-1" target="ADkrZxMqCA1YCd4Kgob1-6">
          <mxGeometry relative="1" as="geometry" />
        </mxCell>
        <mxCell id="ADkrZxMqCA1YCd4Kgob1-14" style="rounded=0;orthogonalLoop=1;jettySize=auto;html=1;exitX=1;exitY=0.5;exitDx=0;exitDy=0;" edge="1" parent="1" source="u74EEwaIPu6hB99J040Y-1" target="ADkrZxMqCA1YCd4Kgob1-1">
          <mxGeometry relative="1" as="geometry" />
        </mxCell>
        <mxCell id="ADkrZxMqCA1YCd4Kgob1-15" style="rounded=0;orthogonalLoop=1;jettySize=auto;html=1;exitX=1;exitY=0.5;exitDx=0;exitDy=0;" edge="1" parent="1" source="u74EEwaIPu6hB99J040Y-1" target="ADkrZxMqCA1YCd4Kgob1-2">
          <mxGeometry relative="1" as="geometry" />
        </mxCell>
        <mxCell id="ADkrZxMqCA1YCd4Kgob1-20" value="" style="edgeStyle=orthogonalEdgeStyle;rounded=0;orthogonalLoop=1;jettySize=auto;html=1;" edge="1" parent="1" source="u74EEwaIPu6hB99J040Y-1" target="ADkrZxMqCA1YCd4Kgob1-19">
          <mxGeometry relative="1" as="geometry" />
        </mxCell>
        <mxCell id="u74EEwaIPu6hB99J040Y-1" value="Employee" style="rounded=0;whiteSpace=wrap;html=1;" vertex="1" parent="1">
          <mxGeometry x="90" y="-130" width="120" height="150" as="geometry" />
        </mxCell>
        <mxCell id="ADkrZxMqCA1YCd4Kgob1-32" style="rounded=0;orthogonalLoop=1;jettySize=auto;html=1;exitX=0;exitY=0.5;exitDx=0;exitDy=0;entryX=1;entryY=0.5;entryDx=0;entryDy=0;" edge="1" parent="1" source="u74EEwaIPu6hB99J040Y-4" target="ADkrZxMqCA1YCd4Kgob1-22">
          <mxGeometry relative="1" as="geometry" />
        </mxCell>
        <mxCell id="7LEP01GB3Y7ZaEZJMxR3-24" style="rounded=0;orthogonalLoop=1;jettySize=auto;html=1;exitX=0.5;exitY=1;exitDx=0;exitDy=0;" edge="1" parent="1" source="u74EEwaIPu6hB99J040Y-4" target="7LEP01GB3Y7ZaEZJMxR3-23">
          <mxGeometry relative="1" as="geometry" />
        </mxCell>
        <mxCell id="7LEP01GB3Y7ZaEZJMxR3-45" style="rounded=0;orthogonalLoop=1;jettySize=auto;html=1;exitX=0;exitY=0.75;exitDx=0;exitDy=0;" edge="1" parent="1" source="u74EEwaIPu6hB99J040Y-4" target="7LEP01GB3Y7ZaEZJMxR3-53">
          <mxGeometry relative="1" as="geometry" />
        </mxCell>
        <mxCell id="u74EEwaIPu6hB99J040Y-4" value="Branch" style="rounded=0;whiteSpace=wrap;html=1;" vertex="1" parent="1">
          <mxGeometry x="-50" y="70" width="100" height="60" as="geometry" />
        </mxCell>
        <mxCell id="7LEP01GB3Y7ZaEZJMxR3-3" style="rounded=0;orthogonalLoop=1;jettySize=auto;html=1;" edge="1" parent="1" source="u74EEwaIPu6hB99J040Y-6" target="ADkrZxMqCA1YCd4Kgob1-42">
          <mxGeometry relative="1" as="geometry" />
        </mxCell>
        <mxCell id="u74EEwaIPu6hB99J040Y-6" value="Dependent" style="rounded=0;whiteSpace=wrap;html=1;" vertex="1" parent="1">
          <mxGeometry x="250" y="200" width="120" height="60" as="geometry" />
        </mxCell>
        <mxCell id="mw1OQ5QA6vkiUedIeK_v-4" style="rounded=0;orthogonalLoop=1;jettySize=auto;html=1;exitX=0.5;exitY=0;exitDx=0;exitDy=0;" edge="1" parent="1" source="u74EEwaIPu6hB99J040Y-8" target="mw1OQ5QA6vkiUedIeK_v-1">
          <mxGeometry relative="1" as="geometry" />
        </mxCell>
        <mxCell id="mw1OQ5QA6vkiUedIeK_v-5" style="rounded=0;orthogonalLoop=1;jettySize=auto;html=1;exitX=1;exitY=0.5;exitDx=0;exitDy=0;" edge="1" parent="1" source="u74EEwaIPu6hB99J040Y-8" target="mw1OQ5QA6vkiUedIeK_v-2">
          <mxGeometry relative="1" as="geometry" />
        </mxCell>
        <mxCell id="mw1OQ5QA6vkiUedIeK_v-6" style="rounded=0;orthogonalLoop=1;jettySize=auto;html=1;exitX=1;exitY=0.5;exitDx=0;exitDy=0;" edge="1" parent="1" source="u74EEwaIPu6hB99J040Y-8" target="mw1OQ5QA6vkiUedIeK_v-3">
          <mxGeometry relative="1" as="geometry" />
        </mxCell>
        <mxCell id="u74EEwaIPu6hB99J040Y-8" value="Skill" style="rounded=0;whiteSpace=wrap;html=1;" vertex="1" parent="1">
          <mxGeometry x="450" y="30" width="120" height="60" as="geometry" />
        </mxCell>
        <mxCell id="7LEP01GB3Y7ZaEZJMxR3-15" style="rounded=0;orthogonalLoop=1;jettySize=auto;html=1;exitX=0;exitY=0.5;exitDx=0;exitDy=0;" edge="1" parent="1" source="u74EEwaIPu6hB99J040Y-13" target="7LEP01GB3Y7ZaEZJMxR3-7">
          <mxGeometry relative="1" as="geometry" />
        </mxCell>
        <mxCell id="7LEP01GB3Y7ZaEZJMxR3-17" style="rounded=0;orthogonalLoop=1;jettySize=auto;html=1;exitX=0;exitY=0.5;exitDx=0;exitDy=0;" edge="1" parent="1" source="u74EEwaIPu6hB99J040Y-13" target="7LEP01GB3Y7ZaEZJMxR3-8">
          <mxGeometry relative="1" as="geometry" />
        </mxCell>
        <mxCell id="7LEP01GB3Y7ZaEZJMxR3-19" style="rounded=0;orthogonalLoop=1;jettySize=auto;html=1;exitX=0;exitY=0.5;exitDx=0;exitDy=0;" edge="1" parent="1" source="u74EEwaIPu6hB99J040Y-13" target="7LEP01GB3Y7ZaEZJMxR3-10">
          <mxGeometry relative="1" as="geometry" />
        </mxCell>
        <mxCell id="7LEP01GB3Y7ZaEZJMxR3-20" style="rounded=0;orthogonalLoop=1;jettySize=auto;html=1;exitX=0.5;exitY=1;exitDx=0;exitDy=0;entryX=0.5;entryY=0;entryDx=0;entryDy=0;" edge="1" parent="1" source="u74EEwaIPu6hB99J040Y-13" target="7LEP01GB3Y7ZaEZJMxR3-11">
          <mxGeometry relative="1" as="geometry" />
        </mxCell>
        <mxCell id="7LEP01GB3Y7ZaEZJMxR3-21" style="rounded=0;orthogonalLoop=1;jettySize=auto;html=1;exitX=1;exitY=0.5;exitDx=0;exitDy=0;entryX=0.5;entryY=0;entryDx=0;entryDy=0;" edge="1" parent="1" source="u74EEwaIPu6hB99J040Y-13" target="7LEP01GB3Y7ZaEZJMxR3-13">
          <mxGeometry relative="1" as="geometry" />
        </mxCell>
        <mxCell id="7LEP01GB3Y7ZaEZJMxR3-27" style="rounded=0;orthogonalLoop=1;jettySize=auto;html=1;exitX=0.25;exitY=1;exitDx=0;exitDy=0;" edge="1" parent="1" source="u74EEwaIPu6hB99J040Y-13" target="7LEP01GB3Y7ZaEZJMxR3-26">
          <mxGeometry relative="1" as="geometry" />
        </mxCell>
        <mxCell id="u74EEwaIPu6hB99J040Y-13" value="Customer" style="rounded=0;whiteSpace=wrap;html=1;" vertex="1" parent="1">
          <mxGeometry x="-190" y="480" width="120" height="60" as="geometry" />
        </mxCell>
        <mxCell id="7LEP01GB3Y7ZaEZJMxR3-36" style="rounded=0;orthogonalLoop=1;jettySize=auto;html=1;exitX=0;exitY=0.5;exitDx=0;exitDy=0;" edge="1" parent="1" source="u74EEwaIPu6hB99J040Y-15" target="7LEP01GB3Y7ZaEZJMxR3-29">
          <mxGeometry relative="1" as="geometry" />
        </mxCell>
        <mxCell id="7LEP01GB3Y7ZaEZJMxR3-38" style="rounded=0;orthogonalLoop=1;jettySize=auto;html=1;exitX=0;exitY=1;exitDx=0;exitDy=0;" edge="1" parent="1" source="u74EEwaIPu6hB99J040Y-15" target="7LEP01GB3Y7ZaEZJMxR3-33">
          <mxGeometry relative="1" as="geometry" />
        </mxCell>
        <mxCell id="7LEP01GB3Y7ZaEZJMxR3-39" style="rounded=0;orthogonalLoop=1;jettySize=auto;html=1;exitX=0;exitY=1;exitDx=0;exitDy=0;" edge="1" parent="1" source="u74EEwaIPu6hB99J040Y-15" target="7LEP01GB3Y7ZaEZJMxR3-34">
          <mxGeometry relative="1" as="geometry" />
        </mxCell>
        <mxCell id="u74EEwaIPu6hB99J040Y-15" value="Account" style="rounded=0;whiteSpace=wrap;html=1;" vertex="1" parent="1">
          <mxGeometry x="-300" y="770" width="120" height="60" as="geometry" />
        </mxCell>
        <mxCell id="7LEP01GB3Y7ZaEZJMxR3-43" style="rounded=0;orthogonalLoop=1;jettySize=auto;html=1;exitX=1;exitY=0.5;exitDx=0;exitDy=0;entryX=0.5;entryY=0;entryDx=0;entryDy=0;" edge="1" parent="1" source="u74EEwaIPu6hB99J040Y-17" target="7LEP01GB3Y7ZaEZJMxR3-35">
          <mxGeometry relative="1" as="geometry" />
        </mxCell>
        <mxCell id="u74EEwaIPu6hB99J040Y-17" value="Order" style="rounded=0;whiteSpace=wrap;html=1;" vertex="1" parent="1">
          <mxGeometry x="-90" y="770" width="120" height="60" as="geometry" />
        </mxCell>
        <mxCell id="7LEP01GB3Y7ZaEZJMxR3-56" style="rounded=0;orthogonalLoop=1;jettySize=auto;html=1;exitX=0;exitY=0.5;exitDx=0;exitDy=0;" edge="1" parent="1" source="u74EEwaIPu6hB99J040Y-19" target="7LEP01GB3Y7ZaEZJMxR3-47">
          <mxGeometry relative="1" as="geometry" />
        </mxCell>
        <mxCell id="7LEP01GB3Y7ZaEZJMxR3-57" style="rounded=0;orthogonalLoop=1;jettySize=auto;html=1;exitX=0;exitY=0.5;exitDx=0;exitDy=0;" edge="1" parent="1" source="u74EEwaIPu6hB99J040Y-19" target="7LEP01GB3Y7ZaEZJMxR3-48">
          <mxGeometry relative="1" as="geometry" />
        </mxCell>
        <mxCell id="7LEP01GB3Y7ZaEZJMxR3-60" style="rounded=0;orthogonalLoop=1;jettySize=auto;html=1;exitX=0.5;exitY=1;exitDx=0;exitDy=0;" edge="1" parent="1" source="u74EEwaIPu6hB99J040Y-19" target="7LEP01GB3Y7ZaEZJMxR3-50">
          <mxGeometry relative="1" as="geometry" />
        </mxCell>
        <mxCell id="u74EEwaIPu6hB99J040Y-19" value="Item" style="rounded=0;whiteSpace=wrap;html=1;" vertex="1" parent="1">
          <mxGeometry x="-390" y="50" width="120" height="60" as="geometry" />
        </mxCell>
        <mxCell id="ADkrZxMqCA1YCd4Kgob1-1" value="&lt;br&gt;Telephone" style="ellipse;whiteSpace=wrap;html=1;" vertex="1" parent="1">
          <mxGeometry x="305" y="-270" width="120" height="80" as="geometry" />
        </mxCell>
        <mxCell id="ADkrZxMqCA1YCd4Kgob1-18" value="" style="edgeStyle=orthogonalEdgeStyle;rounded=0;orthogonalLoop=1;jettySize=auto;html=1;" edge="1" parent="1" source="ADkrZxMqCA1YCd4Kgob1-2" target="ADkrZxMqCA1YCd4Kgob1-1">
          <mxGeometry relative="1" as="geometry" />
        </mxCell>
        <mxCell id="ADkrZxMqCA1YCd4Kgob1-2" value="Date of Birth" style="ellipse;whiteSpace=wrap;html=1;" vertex="1" parent="1">
          <mxGeometry x="305" y="-160" width="120" height="80" as="geometry" />
        </mxCell>
        <mxCell id="ADkrZxMqCA1YCd4Kgob1-3" value="&lt;div&gt;Primary Language&lt;br&gt;&lt;/div&gt;" style="ellipse;whiteSpace=wrap;html=1;" vertex="1" parent="1">
          <mxGeometry x="320" y="-30" width="120" height="80" as="geometry" />
        </mxCell>
        <mxCell id="ADkrZxMqCA1YCd4Kgob1-4" value="Zip Code" style="ellipse;whiteSpace=wrap;html=1;" vertex="1" parent="1">
          <mxGeometry x="150" y="-330" width="120" height="80" as="geometry" />
        </mxCell>
        <mxCell id="ADkrZxMqCA1YCd4Kgob1-5" value="State" style="ellipse;whiteSpace=wrap;html=1;" vertex="1" parent="1">
          <mxGeometry x="-20" y="-310" width="120" height="80" as="geometry" />
        </mxCell>
        <mxCell id="ADkrZxMqCA1YCd4Kgob1-6" value="City" style="ellipse;whiteSpace=wrap;html=1;" vertex="1" parent="1">
          <mxGeometry x="-180" y="-280" width="120" height="80" as="geometry" />
        </mxCell>
        <mxCell id="ADkrZxMqCA1YCd4Kgob1-7" value="Address" style="ellipse;whiteSpace=wrap;html=1;" vertex="1" parent="1">
          <mxGeometry x="-355" y="-280" width="120" height="80" as="geometry" />
        </mxCell>
        <mxCell id="ADkrZxMqCA1YCd4Kgob1-8" value="Name" style="ellipse;whiteSpace=wrap;html=1;" vertex="1" parent="1">
          <mxGeometry x="-305" y="-160" width="120" height="80" as="geometry" />
        </mxCell>
        <mxCell id="ADkrZxMqCA1YCd4Kgob1-12" style="rounded=0;orthogonalLoop=1;jettySize=auto;html=1;exitX=0;exitY=0.5;exitDx=0;exitDy=0;entryX=0.566;entryY=1.039;entryDx=0;entryDy=0;entryPerimeter=0;" edge="1" parent="1" source="u74EEwaIPu6hB99J040Y-1" target="ADkrZxMqCA1YCd4Kgob1-5">
          <mxGeometry relative="1" as="geometry" />
        </mxCell>
        <mxCell id="ADkrZxMqCA1YCd4Kgob1-13" style="rounded=0;orthogonalLoop=1;jettySize=auto;html=1;exitX=0.5;exitY=0;exitDx=0;exitDy=0;entryX=0.627;entryY=0.993;entryDx=0;entryDy=0;entryPerimeter=0;" edge="1" parent="1" source="u74EEwaIPu6hB99J040Y-1" target="ADkrZxMqCA1YCd4Kgob1-4">
          <mxGeometry relative="1" as="geometry" />
        </mxCell>
        <mxCell id="ADkrZxMqCA1YCd4Kgob1-16" style="rounded=0;orthogonalLoop=1;jettySize=auto;html=1;exitX=1;exitY=0.5;exitDx=0;exitDy=0;entryX=0.036;entryY=0.72;entryDx=0;entryDy=0;entryPerimeter=0;" edge="1" parent="1" source="u74EEwaIPu6hB99J040Y-1" target="ADkrZxMqCA1YCd4Kgob1-3">
          <mxGeometry relative="1" as="geometry" />
        </mxCell>
        <mxCell id="ADkrZxMqCA1YCd4Kgob1-17" style="rounded=0;orthogonalLoop=1;jettySize=auto;html=1;exitX=0;exitY=0.5;exitDx=0;exitDy=0;entryX=0.937;entryY=0.755;entryDx=0;entryDy=0;entryPerimeter=0;" edge="1" parent="1" source="u74EEwaIPu6hB99J040Y-1" target="ADkrZxMqCA1YCd4Kgob1-6">
          <mxGeometry relative="1" as="geometry" />
        </mxCell>
        <mxCell id="ADkrZxMqCA1YCd4Kgob1-30" style="rounded=0;orthogonalLoop=1;jettySize=auto;html=1;entryX=1;entryY=0.5;entryDx=0;entryDy=0;" edge="1" parent="1" source="ADkrZxMqCA1YCd4Kgob1-19" target="u74EEwaIPu6hB99J040Y-4">
          <mxGeometry relative="1" as="geometry" />
        </mxCell>
        <mxCell id="7LEP01GB3Y7ZaEZJMxR3-52" value="Text" style="edgeLabel;html=1;align=center;verticalAlign=middle;resizable=0;points=[];" vertex="1" connectable="0" parent="ADkrZxMqCA1YCd4Kgob1-30">
          <mxGeometry x="-0.4753" y="-2" relative="1" as="geometry">
            <mxPoint x="-1" as="offset" />
          </mxGeometry>
        </mxCell>
        <mxCell id="7LEP01GB3Y7ZaEZJMxR3-1" style="rounded=0;orthogonalLoop=1;jettySize=auto;html=1;" edge="1" parent="1" source="ADkrZxMqCA1YCd4Kgob1-19" target="u74EEwaIPu6hB99J040Y-6">
          <mxGeometry relative="1" as="geometry" />
        </mxCell>
        <mxCell id="7LEP01GB3Y7ZaEZJMxR3-5" style="rounded=0;orthogonalLoop=1;jettySize=auto;html=1;" edge="1" parent="1" source="ADkrZxMqCA1YCd4Kgob1-19" target="u74EEwaIPu6hB99J040Y-8">
          <mxGeometry relative="1" as="geometry" />
        </mxCell>
        <mxCell id="ADkrZxMqCA1YCd4Kgob1-19" value="Has" style="rhombus;whiteSpace=wrap;html=1;" vertex="1" parent="1">
          <mxGeometry x="110" y="110" width="80" height="80" as="geometry" />
        </mxCell>
        <mxCell id="ADkrZxMqCA1YCd4Kgob1-21" value="Branch Number" style="ellipse;whiteSpace=wrap;html=1;" vertex="1" parent="1">
          <mxGeometry x="-250" y="-60" width="120" height="80" as="geometry" />
        </mxCell>
        <mxCell id="ADkrZxMqCA1YCd4Kgob1-33" style="rounded=0;orthogonalLoop=1;jettySize=auto;html=1;" edge="1" parent="1" source="ADkrZxMqCA1YCd4Kgob1-22" target="ADkrZxMqCA1YCd4Kgob1-26">
          <mxGeometry relative="1" as="geometry">
            <mxPoint x="-597.1107406934007" y="43.02504265857033" as="targetPoint" />
          </mxGeometry>
        </mxCell>
        <mxCell id="ADkrZxMqCA1YCd4Kgob1-37" style="rounded=0;orthogonalLoop=1;jettySize=auto;html=1;" edge="1" parent="1" source="ADkrZxMqCA1YCd4Kgob1-22" target="ADkrZxMqCA1YCd4Kgob1-25">
          <mxGeometry relative="1" as="geometry">
            <mxPoint x="-732.5735931288073" y="61.71572875253878" as="targetPoint" />
          </mxGeometry>
        </mxCell>
        <mxCell id="ADkrZxMqCA1YCd4Kgob1-38" style="rounded=0;orthogonalLoop=1;jettySize=auto;html=1;exitX=0;exitY=0;exitDx=0;exitDy=0;" edge="1" parent="1" source="ADkrZxMqCA1YCd4Kgob1-22" target="ADkrZxMqCA1YCd4Kgob1-27">
          <mxGeometry relative="1" as="geometry" />
        </mxCell>
        <mxCell id="ADkrZxMqCA1YCd4Kgob1-22" value="&lt;br&gt;Location" style="ellipse;whiteSpace=wrap;html=1;" vertex="1" parent="1">
          <mxGeometry x="-600" y="-90" width="120" height="80" as="geometry" />
        </mxCell>
        <mxCell id="ADkrZxMqCA1YCd4Kgob1-23" value="Post" style="ellipse;whiteSpace=wrap;html=1;" vertex="1" parent="1">
          <mxGeometry x="-1030" y="-130" width="120" height="80" as="geometry" />
        </mxCell>
        <mxCell id="ADkrZxMqCA1YCd4Kgob1-24" value="Province" style="ellipse;whiteSpace=wrap;html=1;" vertex="1" parent="1">
          <mxGeometry x="-950" y="-40" width="120" height="80" as="geometry" />
        </mxCell>
        <mxCell id="ADkrZxMqCA1YCd4Kgob1-25" value="City" style="ellipse;whiteSpace=wrap;html=1;" vertex="1" parent="1">
          <mxGeometry x="-950" y="60" width="120" height="80" as="geometry" />
        </mxCell>
        <mxCell id="ADkrZxMqCA1YCd4Kgob1-26" value="Address" style="ellipse;whiteSpace=wrap;html=1;" vertex="1" parent="1">
          <mxGeometry x="-770" y="40" width="120" height="80" as="geometry" />
        </mxCell>
        <mxCell id="ADkrZxMqCA1YCd4Kgob1-27" value="Code" style="ellipse;whiteSpace=wrap;html=1;" vertex="1" parent="1">
          <mxGeometry x="-910" y="-200" width="120" height="80" as="geometry" />
        </mxCell>
        <mxCell id="ADkrZxMqCA1YCd4Kgob1-28" value="Primary" style="ellipse;whiteSpace=wrap;html=1;" vertex="1" parent="1">
          <mxGeometry x="-775" y="-250" width="120" height="80" as="geometry" />
        </mxCell>
        <mxCell id="ADkrZxMqCA1YCd4Kgob1-29" value="Language" style="ellipse;whiteSpace=wrap;html=1;" vertex="1" parent="1">
          <mxGeometry x="-670" y="-310" width="120" height="80" as="geometry" />
        </mxCell>
        <mxCell id="ADkrZxMqCA1YCd4Kgob1-31" style="rounded=0;orthogonalLoop=1;jettySize=auto;html=1;exitX=0.25;exitY=0;exitDx=0;exitDy=0;entryX=0.8;entryY=0.865;entryDx=0;entryDy=0;entryPerimeter=0;" edge="1" parent="1" source="u74EEwaIPu6hB99J040Y-4" target="ADkrZxMqCA1YCd4Kgob1-21">
          <mxGeometry relative="1" as="geometry" />
        </mxCell>
        <mxCell id="ADkrZxMqCA1YCd4Kgob1-35" style="rounded=0;orthogonalLoop=1;jettySize=auto;html=1;entryX=0.967;entryY=0.696;entryDx=0;entryDy=0;entryPerimeter=0;" edge="1" parent="1" source="ADkrZxMqCA1YCd4Kgob1-22" target="ADkrZxMqCA1YCd4Kgob1-24">
          <mxGeometry relative="1" as="geometry" />
        </mxCell>
        <mxCell id="ADkrZxMqCA1YCd4Kgob1-36" style="rounded=0;orthogonalLoop=1;jettySize=auto;html=1;entryX=0.961;entryY=0.704;entryDx=0;entryDy=0;entryPerimeter=0;" edge="1" parent="1" source="ADkrZxMqCA1YCd4Kgob1-22" target="ADkrZxMqCA1YCd4Kgob1-23">
          <mxGeometry relative="1" as="geometry" />
        </mxCell>
        <mxCell id="ADkrZxMqCA1YCd4Kgob1-39" style="rounded=0;orthogonalLoop=1;jettySize=auto;html=1;entryX=0.782;entryY=0.883;entryDx=0;entryDy=0;entryPerimeter=0;" edge="1" parent="1" source="ADkrZxMqCA1YCd4Kgob1-22" target="ADkrZxMqCA1YCd4Kgob1-28">
          <mxGeometry relative="1" as="geometry" />
        </mxCell>
        <mxCell id="ADkrZxMqCA1YCd4Kgob1-40" style="rounded=0;orthogonalLoop=1;jettySize=auto;html=1;entryX=0.544;entryY=0.972;entryDx=0;entryDy=0;entryPerimeter=0;" edge="1" parent="1" source="ADkrZxMqCA1YCd4Kgob1-22" target="ADkrZxMqCA1YCd4Kgob1-29">
          <mxGeometry relative="1" as="geometry" />
        </mxCell>
        <mxCell id="ADkrZxMqCA1YCd4Kgob1-41" value="Name" style="ellipse;whiteSpace=wrap;html=1;" vertex="1" parent="1">
          <mxGeometry x="610" y="240" width="120" height="80" as="geometry" />
        </mxCell>
        <mxCell id="ADkrZxMqCA1YCd4Kgob1-42" value="Age" style="ellipse;whiteSpace=wrap;html=1;" vertex="1" parent="1">
          <mxGeometry x="530" y="320" width="120" height="80" as="geometry" />
        </mxCell>
        <mxCell id="ADkrZxMqCA1YCd4Kgob1-43" value="Relationship" style="ellipse;whiteSpace=wrap;html=1;" vertex="1" parent="1">
          <mxGeometry x="380" y="310" width="120" height="80" as="geometry" />
        </mxCell>
        <mxCell id="7LEP01GB3Y7ZaEZJMxR3-2" style="rounded=0;orthogonalLoop=1;jettySize=auto;html=1;entryX=0.583;entryY=0;entryDx=0;entryDy=0;entryPerimeter=0;" edge="1" parent="1" source="u74EEwaIPu6hB99J040Y-6" target="ADkrZxMqCA1YCd4Kgob1-43">
          <mxGeometry relative="1" as="geometry" />
        </mxCell>
        <mxCell id="7LEP01GB3Y7ZaEZJMxR3-4" style="rounded=0;orthogonalLoop=1;jettySize=auto;html=1;entryX=0.114;entryY=0.133;entryDx=0;entryDy=0;entryPerimeter=0;" edge="1" parent="1" source="u74EEwaIPu6hB99J040Y-6" target="ADkrZxMqCA1YCd4Kgob1-41">
          <mxGeometry relative="1" as="geometry" />
        </mxCell>
        <mxCell id="7LEP01GB3Y7ZaEZJMxR3-7" value="Name" style="ellipse;whiteSpace=wrap;html=1;" vertex="1" parent="1">
          <mxGeometry x="-650" y="490" width="120" height="80" as="geometry" />
        </mxCell>
        <mxCell id="7LEP01GB3Y7ZaEZJMxR3-8" value="Address" style="ellipse;whiteSpace=wrap;html=1;" vertex="1" parent="1">
          <mxGeometry x="-630" y="580" width="120" height="80" as="geometry" />
        </mxCell>
        <mxCell id="7LEP01GB3Y7ZaEZJMxR3-9" value="City State" style="ellipse;whiteSpace=wrap;html=1;" vertex="1" parent="1">
          <mxGeometry x="-530" y="690" width="120" height="80" as="geometry" />
        </mxCell>
        <mxCell id="7LEP01GB3Y7ZaEZJMxR3-10" value="Zip Code" style="ellipse;whiteSpace=wrap;html=1;" vertex="1" parent="1">
          <mxGeometry x="-400" y="648" width="120" height="80" as="geometry" />
        </mxCell>
        <mxCell id="7LEP01GB3Y7ZaEZJMxR3-11" value="Telephone" style="ellipse;whiteSpace=wrap;html=1;" vertex="1" parent="1">
          <mxGeometry x="120" y="710" width="120" height="80" as="geometry" />
        </mxCell>
        <mxCell id="7LEP01GB3Y7ZaEZJMxR3-12" value="Date of Birth" style="ellipse;whiteSpace=wrap;html=1;" vertex="1" parent="1">
          <mxGeometry x="100" y="510" width="120" height="80" as="geometry" />
        </mxCell>
        <mxCell id="7LEP01GB3Y7ZaEZJMxR3-13" value="Primary Language" style="ellipse;whiteSpace=wrap;html=1;" vertex="1" parent="1">
          <mxGeometry x="140" y="618" width="120" height="80" as="geometry" />
        </mxCell>
        <mxCell id="7LEP01GB3Y7ZaEZJMxR3-16" value="Text" style="text;html=1;align=center;verticalAlign=middle;resizable=0;points=[];autosize=1;strokeColor=none;fillColor=none;" vertex="1" parent="1">
          <mxGeometry x="-405" y="618" width="50" height="30" as="geometry" />
        </mxCell>
        <mxCell id="7LEP01GB3Y7ZaEZJMxR3-18" style="rounded=0;orthogonalLoop=1;jettySize=auto;html=1;exitX=0;exitY=0.5;exitDx=0;exitDy=0;entryX=0.553;entryY=0.008;entryDx=0;entryDy=0;entryPerimeter=0;" edge="1" parent="1" source="u74EEwaIPu6hB99J040Y-13" target="7LEP01GB3Y7ZaEZJMxR3-9">
          <mxGeometry relative="1" as="geometry" />
        </mxCell>
        <mxCell id="7LEP01GB3Y7ZaEZJMxR3-22" style="rounded=0;orthogonalLoop=1;jettySize=auto;html=1;exitX=1;exitY=0.5;exitDx=0;exitDy=0;entryX=0.014;entryY=0.283;entryDx=0;entryDy=0;entryPerimeter=0;" edge="1" parent="1" source="u74EEwaIPu6hB99J040Y-13" target="7LEP01GB3Y7ZaEZJMxR3-12">
          <mxGeometry relative="1" as="geometry" />
        </mxCell>
        <mxCell id="7LEP01GB3Y7ZaEZJMxR3-25" style="rounded=0;orthogonalLoop=1;jettySize=auto;html=1;exitX=0.5;exitY=1;exitDx=0;exitDy=0;entryX=0.5;entryY=0;entryDx=0;entryDy=0;" edge="1" parent="1" source="7LEP01GB3Y7ZaEZJMxR3-23" target="u74EEwaIPu6hB99J040Y-13">
          <mxGeometry relative="1" as="geometry" />
        </mxCell>
        <mxCell id="7LEP01GB3Y7ZaEZJMxR3-23" value="Has" style="rhombus;whiteSpace=wrap;html=1;" vertex="1" parent="1">
          <mxGeometry x="-70" y="300" width="80" height="80" as="geometry" />
        </mxCell>
        <mxCell id="7LEP01GB3Y7ZaEZJMxR3-28" style="rounded=0;orthogonalLoop=1;jettySize=auto;html=1;" edge="1" parent="1" source="7LEP01GB3Y7ZaEZJMxR3-26" target="u74EEwaIPu6hB99J040Y-15">
          <mxGeometry relative="1" as="geometry" />
        </mxCell>
        <mxCell id="7LEP01GB3Y7ZaEZJMxR3-40" style="rounded=0;orthogonalLoop=1;jettySize=auto;html=1;exitX=1;exitY=1;exitDx=0;exitDy=0;entryX=0.5;entryY=0;entryDx=0;entryDy=0;" edge="1" parent="1" source="7LEP01GB3Y7ZaEZJMxR3-26" target="u74EEwaIPu6hB99J040Y-17">
          <mxGeometry relative="1" as="geometry" />
        </mxCell>
        <mxCell id="7LEP01GB3Y7ZaEZJMxR3-26" value="Has" style="rhombus;whiteSpace=wrap;html=1;" vertex="1" parent="1">
          <mxGeometry x="-190" y="648" width="80" height="80" as="geometry" />
        </mxCell>
        <mxCell id="7LEP01GB3Y7ZaEZJMxR3-29" value="Balance" style="ellipse;whiteSpace=wrap;html=1;" vertex="1" parent="1">
          <mxGeometry x="-660" y="770" width="120" height="80" as="geometry" />
        </mxCell>
        <mxCell id="7LEP01GB3Y7ZaEZJMxR3-30" value="Last payment date" style="ellipse;whiteSpace=wrap;html=1;" vertex="1" parent="1">
          <mxGeometry x="-700" y="860" width="120" height="80" as="geometry" />
        </mxCell>
        <mxCell id="7LEP01GB3Y7ZaEZJMxR3-33" value="Last payment amount" style="ellipse;whiteSpace=wrap;html=1;" vertex="1" parent="1">
          <mxGeometry x="-650" y="950" width="120" height="80" as="geometry" />
        </mxCell>
        <mxCell id="7LEP01GB3Y7ZaEZJMxR3-34" value="&lt;br&gt;&lt;br&gt;&lt;div&gt;&lt;br&gt;&lt;br&gt;Type&lt;/div&gt;" style="ellipse;whiteSpace=wrap;html=1;" vertex="1" parent="1">
          <mxGeometry x="-525" y="1020" width="120" height="80" as="geometry" />
        </mxCell>
        <mxCell id="7LEP01GB3Y7ZaEZJMxR3-35" value="&lt;br&gt;&lt;br&gt;Credit Authorization Status" style="ellipse;whiteSpace=wrap;html=1;" vertex="1" parent="1">
          <mxGeometry x="120" y="820" width="120" height="80" as="geometry" />
        </mxCell>
        <mxCell id="7LEP01GB3Y7ZaEZJMxR3-37" style="rounded=0;orthogonalLoop=1;jettySize=auto;html=1;entryX=1.015;entryY=0.442;entryDx=0;entryDy=0;entryPerimeter=0;" edge="1" parent="1" source="u74EEwaIPu6hB99J040Y-15" target="7LEP01GB3Y7ZaEZJMxR3-30">
          <mxGeometry relative="1" as="geometry" />
        </mxCell>
        <mxCell id="7LEP01GB3Y7ZaEZJMxR3-41" value="Order Date," style="ellipse;whiteSpace=wrap;html=1;" vertex="1" parent="1">
          <mxGeometry y="890" width="120" height="80" as="geometry" />
        </mxCell>
        <mxCell id="7LEP01GB3Y7ZaEZJMxR3-42" style="rounded=0;orthogonalLoop=1;jettySize=auto;html=1;entryX=0.575;entryY=0.048;entryDx=0;entryDy=0;entryPerimeter=0;" edge="1" parent="1" source="u74EEwaIPu6hB99J040Y-17" target="7LEP01GB3Y7ZaEZJMxR3-41">
          <mxGeometry relative="1" as="geometry" />
        </mxCell>
        <mxCell id="7LEP01GB3Y7ZaEZJMxR3-46" value="Description" style="ellipse;whiteSpace=wrap;html=1;" vertex="1" parent="1">
          <mxGeometry x="-620" y="40" width="120" height="80" as="geometry" />
        </mxCell>
        <mxCell id="7LEP01GB3Y7ZaEZJMxR3-47" value="Color" style="ellipse;whiteSpace=wrap;html=1;" vertex="1" parent="1">
          <mxGeometry x="-775" y="140" width="120" height="80" as="geometry" />
        </mxCell>
        <mxCell id="7LEP01GB3Y7ZaEZJMxR3-48" value="Size" style="ellipse;whiteSpace=wrap;html=1;" vertex="1" parent="1">
          <mxGeometry x="-640" y="170" width="120" height="80" as="geometry" />
        </mxCell>
        <mxCell id="7LEP01GB3Y7ZaEZJMxR3-49" value="Type" style="ellipse;whiteSpace=wrap;html=1;" vertex="1" parent="1">
          <mxGeometry x="-670" y="280" width="120" height="80" as="geometry" />
        </mxCell>
        <mxCell id="7LEP01GB3Y7ZaEZJMxR3-61" style="edgeStyle=orthogonalEdgeStyle;rounded=0;orthogonalLoop=1;jettySize=auto;html=1;exitX=0.5;exitY=1;exitDx=0;exitDy=0;" edge="1" parent="1" source="7LEP01GB3Y7ZaEZJMxR3-50">
          <mxGeometry relative="1" as="geometry">
            <mxPoint x="-330" y="110" as="targetPoint" />
          </mxGeometry>
        </mxCell>
        <mxCell id="7LEP01GB3Y7ZaEZJMxR3-50" value="&lt;span style=&quot;font-size: 11px; text-wrap: nowrap; background-color: rgb(255, 255, 255);&quot;&gt;Composed of&lt;/span&gt;" style="rhombus;whiteSpace=wrap;html=1;" vertex="1" parent="1">
          <mxGeometry x="-460" y="260" width="80" height="80" as="geometry" />
        </mxCell>
        <mxCell id="7LEP01GB3Y7ZaEZJMxR3-54" style="rounded=0;orthogonalLoop=1;jettySize=auto;html=1;exitX=0;exitY=0;exitDx=0;exitDy=0;entryX=1;entryY=0.5;entryDx=0;entryDy=0;" edge="1" parent="1" source="7LEP01GB3Y7ZaEZJMxR3-53" target="u74EEwaIPu6hB99J040Y-19">
          <mxGeometry relative="1" as="geometry" />
        </mxCell>
        <mxCell id="7LEP01GB3Y7ZaEZJMxR3-53" value="Sells" style="rhombus;whiteSpace=wrap;html=1;" vertex="1" parent="1">
          <mxGeometry x="-210" y="80" width="80" height="80" as="geometry" />
        </mxCell>
        <mxCell id="7LEP01GB3Y7ZaEZJMxR3-55" style="rounded=0;orthogonalLoop=1;jettySize=auto;html=1;exitX=0;exitY=0.5;exitDx=0;exitDy=0;entryX=1;entryY=0.375;entryDx=0;entryDy=0;entryPerimeter=0;" edge="1" parent="1" source="u74EEwaIPu6hB99J040Y-19" target="7LEP01GB3Y7ZaEZJMxR3-46">
          <mxGeometry relative="1" as="geometry" />
        </mxCell>
        <mxCell id="7LEP01GB3Y7ZaEZJMxR3-58" style="rounded=0;orthogonalLoop=1;jettySize=auto;html=1;exitX=0.5;exitY=1;exitDx=0;exitDy=0;entryX=0.954;entryY=0.279;entryDx=0;entryDy=0;entryPerimeter=0;" edge="1" parent="1" source="u74EEwaIPu6hB99J040Y-19" target="7LEP01GB3Y7ZaEZJMxR3-49">
          <mxGeometry relative="1" as="geometry" />
        </mxCell>
        <mxCell id="7LEP01GB3Y7ZaEZJMxR3-59" style="edgeStyle=orthogonalEdgeStyle;rounded=0;orthogonalLoop=1;jettySize=auto;html=1;exitX=0.5;exitY=1;exitDx=0;exitDy=0;" edge="1" parent="1" source="u74EEwaIPu6hB99J040Y-19" target="u74EEwaIPu6hB99J040Y-19">
          <mxGeometry relative="1" as="geometry" />
        </mxCell>
        <mxCell id="mw1OQ5QA6vkiUedIeK_v-1" value="Talk" style="ellipse;whiteSpace=wrap;html=1;" vertex="1" parent="1">
          <mxGeometry x="520" y="-110" width="120" height="80" as="geometry" />
        </mxCell>
        <mxCell id="mw1OQ5QA6vkiUedIeK_v-2" value="Code" style="ellipse;whiteSpace=wrap;html=1;" vertex="1" parent="1">
          <mxGeometry x="650" width="120" height="80" as="geometry" />
        </mxCell>
        <mxCell id="mw1OQ5QA6vkiUedIeK_v-3" value="Sleep" style="ellipse;whiteSpace=wrap;html=1;" vertex="1" parent="1">
          <mxGeometry x="600" y="130" width="120" height="80" as="geometry" />
        </mxCell>
      </root>
    </mxGraphModel>
  </diagram>
  <diagram id="O0JpPYPYnlehIaWfjiMo" name="relations">
    <mxGraphModel dx="2468" dy="2193" grid="1" gridSize="10" guides="1" tooltips="1" connect="1" arrows="1" fold="1" page="1" pageScale="1" pageWidth="850" pageHeight="1100" math="0" shadow="0">
      <root>
        <mxCell id="0" />
        <mxCell id="1" parent="0" />
        <mxCell id="vikn1mVvLzBbSnObiKpJ-10" value="" style="edgeStyle=orthogonalEdgeStyle;rounded=0;orthogonalLoop=1;jettySize=auto;html=1;" edge="1" parent="1" source="qNclKVFGrG_QMUr6jeiH-1">
          <mxGeometry relative="1" as="geometry">
            <mxPoint x="1180" y="140" as="targetPoint" />
          </mxGeometry>
        </mxCell>
        <mxCell id="vikn1mVvLzBbSnObiKpJ-11" value="Has" style="edgeLabel;html=1;align=center;verticalAlign=middle;resizable=0;points=[];" vertex="1" connectable="0" parent="vikn1mVvLzBbSnObiKpJ-10">
          <mxGeometry x="-0.0156" y="-1" relative="1" as="geometry">
            <mxPoint as="offset" />
          </mxGeometry>
        </mxCell>
        <mxCell id="vikn1mVvLzBbSnObiKpJ-24" value="" style="edgeStyle=orthogonalEdgeStyle;rounded=0;orthogonalLoop=1;jettySize=auto;html=1;" edge="1" parent="1" source="qNclKVFGrG_QMUr6jeiH-1">
          <mxGeometry relative="1" as="geometry">
            <mxPoint x="160" y="30" as="targetPoint" />
          </mxGeometry>
        </mxCell>
        <mxCell id="hgb0kMbkWvSOSXMyHwdC-7" value="Has" style="edgeLabel;html=1;align=center;verticalAlign=middle;resizable=0;points=[];" vertex="1" connectable="0" parent="vikn1mVvLzBbSnObiKpJ-24">
          <mxGeometry x="-0.0021" y="-2" relative="1" as="geometry">
            <mxPoint x="1560" y="140" as="offset" />
          </mxGeometry>
        </mxCell>
        <mxCell id="qNclKVFGrG_QMUr6jeiH-1" value="&lt;u&gt;Employee&lt;/u&gt;" style="rounded=0;whiteSpace=wrap;html=1;fillColor=#dae8fc;strokeColor=#6c8ebf;" vertex="1" parent="1">
          <mxGeometry x="100" y="110" width="120" height="60" as="geometry" />
        </mxCell>
        <mxCell id="vikn1mVvLzBbSnObiKpJ-1" value="Name" style="rounded=0;whiteSpace=wrap;html=1;" vertex="1" parent="1">
          <mxGeometry x="220" y="110" width="120" height="60" as="geometry" />
        </mxCell>
        <mxCell id="vikn1mVvLzBbSnObiKpJ-2" value="Address" style="rounded=0;whiteSpace=wrap;html=1;" vertex="1" parent="1">
          <mxGeometry x="340" y="110" width="120" height="60" as="geometry" />
        </mxCell>
        <mxCell id="vikn1mVvLzBbSnObiKpJ-3" value="City" style="rounded=0;whiteSpace=wrap;html=1;" vertex="1" parent="1">
          <mxGeometry x="460" y="110" width="120" height="60" as="geometry" />
        </mxCell>
        <mxCell id="vikn1mVvLzBbSnObiKpJ-4" value="State" style="rounded=0;whiteSpace=wrap;html=1;" vertex="1" parent="1">
          <mxGeometry x="580" y="110" width="120" height="60" as="geometry" />
        </mxCell>
        <mxCell id="vikn1mVvLzBbSnObiKpJ-5" value="Zip Code" style="rounded=0;whiteSpace=wrap;html=1;" vertex="1" parent="1">
          <mxGeometry x="700" y="110" width="120" height="60" as="geometry" />
        </mxCell>
        <mxCell id="vikn1mVvLzBbSnObiKpJ-6" value="Telephone" style="rounded=0;whiteSpace=wrap;html=1;" vertex="1" parent="1">
          <mxGeometry x="820" y="110" width="120" height="60" as="geometry" />
        </mxCell>
        <mxCell id="vikn1mVvLzBbSnObiKpJ-7" value="Date of Birth" style="rounded=0;whiteSpace=wrap;html=1;" vertex="1" parent="1">
          <mxGeometry x="940" y="110" width="120" height="60" as="geometry" />
        </mxCell>
        <mxCell id="vikn1mVvLzBbSnObiKpJ-8" value="Primary Language" style="rounded=0;whiteSpace=wrap;html=1;" vertex="1" parent="1">
          <mxGeometry x="1060" y="110" width="120" height="60" as="geometry" />
        </mxCell>
        <mxCell id="vikn1mVvLzBbSnObiKpJ-12" value="&lt;u&gt;Branch&lt;/u&gt;" style="rounded=0;whiteSpace=wrap;html=1;fillColor=#dae8fc;strokeColor=#6c8ebf;" vertex="1" parent="1">
          <mxGeometry x="1180" y="110" width="120" height="60" as="geometry" />
        </mxCell>
        <mxCell id="hgb0kMbkWvSOSXMyHwdC-19" style="edgeStyle=orthogonalEdgeStyle;rounded=0;orthogonalLoop=1;jettySize=auto;html=1;exitX=0.5;exitY=1;exitDx=0;exitDy=0;entryX=1;entryY=0.5;entryDx=0;entryDy=0;" edge="1" parent="1" source="vikn1mVvLzBbSnObiKpJ-13">
          <mxGeometry relative="1" as="geometry">
            <mxPoint x="280" y="400" as="targetPoint" />
          </mxGeometry>
        </mxCell>
        <mxCell id="vikn1mVvLzBbSnObiKpJ-13" value="Branch Number&amp;nbsp;" style="rounded=0;whiteSpace=wrap;html=1;" vertex="1" parent="1">
          <mxGeometry x="1300" y="110" width="120" height="60" as="geometry" />
        </mxCell>
        <mxCell id="vikn1mVvLzBbSnObiKpJ-14" value="Location" style="rounded=0;whiteSpace=wrap;html=1;" vertex="1" parent="1">
          <mxGeometry x="1420" y="110" width="120" height="60" as="geometry" />
        </mxCell>
        <mxCell id="vikn1mVvLzBbSnObiKpJ-15" value="Location" style="rounded=0;whiteSpace=wrap;html=1;" vertex="1" parent="1">
          <mxGeometry x="460" y="390" width="120" height="60" as="geometry" />
        </mxCell>
        <mxCell id="vikn1mVvLzBbSnObiKpJ-17" value="Address" style="rounded=0;whiteSpace=wrap;html=1;" vertex="1" parent="1">
          <mxGeometry x="580" y="390" width="120" height="60" as="geometry" />
        </mxCell>
        <mxCell id="vikn1mVvLzBbSnObiKpJ-18" value="City" style="rounded=0;whiteSpace=wrap;html=1;" vertex="1" parent="1">
          <mxGeometry x="700" y="390" width="120" height="60" as="geometry" />
        </mxCell>
        <mxCell id="vikn1mVvLzBbSnObiKpJ-19" value="Province" style="rounded=0;whiteSpace=wrap;html=1;" vertex="1" parent="1">
          <mxGeometry x="820" y="390" width="120" height="60" as="geometry" />
        </mxCell>
        <mxCell id="vikn1mVvLzBbSnObiKpJ-20" value="Post" style="rounded=0;whiteSpace=wrap;html=1;" vertex="1" parent="1">
          <mxGeometry x="940" y="390" width="120" height="60" as="geometry" />
        </mxCell>
        <mxCell id="vikn1mVvLzBbSnObiKpJ-21" value="Code" style="rounded=0;whiteSpace=wrap;html=1;" vertex="1" parent="1">
          <mxGeometry x="1060" y="390" width="120" height="60" as="geometry" />
        </mxCell>
        <mxCell id="vikn1mVvLzBbSnObiKpJ-22" value="Primary language" style="rounded=0;whiteSpace=wrap;html=1;" vertex="1" parent="1">
          <mxGeometry x="1180" y="390" width="120" height="60" as="geometry" />
        </mxCell>
        <mxCell id="hgb0kMbkWvSOSXMyHwdC-9" value="" style="edgeStyle=orthogonalEdgeStyle;rounded=0;orthogonalLoop=1;jettySize=auto;html=1;" edge="1" parent="1" target="hgb0kMbkWvSOSXMyHwdC-8">
          <mxGeometry relative="1" as="geometry">
            <mxPoint x="160" y="-30" as="sourcePoint" />
          </mxGeometry>
        </mxCell>
        <mxCell id="vikn1mVvLzBbSnObiKpJ-25" value="&lt;u&gt;Dependent&lt;/u&gt;" style="rounded=0;whiteSpace=wrap;html=1;fillColor=#dae8fc;strokeColor=#6c8ebf;" vertex="1" parent="1">
          <mxGeometry x="1540" y="110" width="120" height="60" as="geometry" />
        </mxCell>
        <mxCell id="vikn1mVvLzBbSnObiKpJ-26" value="Name" style="rounded=0;whiteSpace=wrap;html=1;" vertex="1" parent="1">
          <mxGeometry x="1660" y="110" width="120" height="60" as="geometry" />
        </mxCell>
        <mxCell id="vikn1mVvLzBbSnObiKpJ-27" value="Age" style="rounded=0;whiteSpace=wrap;html=1;" vertex="1" parent="1">
          <mxGeometry x="1780" y="110" width="120" height="60" as="geometry" />
        </mxCell>
        <mxCell id="vikn1mVvLzBbSnObiKpJ-28" value="Relationship" style="rounded=0;whiteSpace=wrap;html=1;" vertex="1" parent="1">
          <mxGeometry x="1900" y="110" width="120" height="60" as="geometry" />
        </mxCell>
        <mxCell id="hgb0kMbkWvSOSXMyHwdC-11" value="" style="edgeStyle=orthogonalEdgeStyle;rounded=0;orthogonalLoop=1;jettySize=auto;html=1;" edge="1" parent="1">
          <mxGeometry relative="1" as="geometry">
            <mxPoint x="380" y="630.0666666666666" as="sourcePoint" />
            <mxPoint x="2560.0666666666666" y="170" as="targetPoint" />
          </mxGeometry>
        </mxCell>
        <mxCell id="vikn1mVvLzBbSnObiKpJ-31" value="Item" style="rounded=0;whiteSpace=wrap;html=1;fillColor=#d5e8d4;strokeColor=#82b366;" vertex="1" parent="1">
          <mxGeometry x="3460" y="110" width="120" height="60" as="geometry" />
        </mxCell>
        <mxCell id="hgb0kMbkWvSOSXMyHwdC-1" value="Description" style="rounded=0;whiteSpace=wrap;html=1;" vertex="1" parent="1">
          <mxGeometry x="3580" y="110" width="120" height="60" as="geometry" />
        </mxCell>
        <mxCell id="hgb0kMbkWvSOSXMyHwdC-2" value="Color" style="rounded=0;whiteSpace=wrap;html=1;" vertex="1" parent="1">
          <mxGeometry x="3700" y="110" width="120" height="60" as="geometry" />
        </mxCell>
        <mxCell id="hgb0kMbkWvSOSXMyHwdC-3" value="Size" style="rounded=0;whiteSpace=wrap;html=1;" vertex="1" parent="1">
          <mxGeometry x="3820" y="110" width="120" height="60" as="geometry" />
        </mxCell>
        <mxCell id="hgb0kMbkWvSOSXMyHwdC-4" value="Price" style="rounded=0;whiteSpace=wrap;html=1;" vertex="1" parent="1">
          <mxGeometry x="3940" y="110" width="120" height="60" as="geometry" />
        </mxCell>
        <mxCell id="hgb0kMbkWvSOSXMyHwdC-6" style="edgeStyle=orthogonalEdgeStyle;rounded=0;orthogonalLoop=1;jettySize=auto;html=1;exitX=0;exitY=0.5;exitDx=0;exitDy=0;" edge="1" parent="1" source="hgb0kMbkWvSOSXMyHwdC-5">
          <mxGeometry relative="1" as="geometry">
            <mxPoint x="-330" y="500" as="targetPoint" />
            <Array as="points">
              <mxPoint x="-520" y="540" />
              <mxPoint x="-520" y="360" />
              <mxPoint x="-329" y="360" />
              <mxPoint x="-329" y="500" />
            </Array>
          </mxGeometry>
        </mxCell>
        <mxCell id="hgb0kMbkWvSOSXMyHwdC-5" value="Type" style="rounded=0;whiteSpace=wrap;html=1;" vertex="1" parent="1">
          <mxGeometry x="4060" y="110" width="120" height="60" as="geometry" />
        </mxCell>
        <mxCell id="hgb0kMbkWvSOSXMyHwdC-8" value="&lt;u&gt;Skill&lt;/u&gt;" style="rounded=0;whiteSpace=wrap;html=1;fillColor=#dae8fc;strokeColor=#6c8ebf;" vertex="1" parent="1">
          <mxGeometry x="2020" y="110" width="120" height="60" as="geometry" />
        </mxCell>
        <mxCell id="hgb0kMbkWvSOSXMyHwdC-12" value="Account" style="whiteSpace=wrap;html=1;rounded=0;fillColor=#dae8fc;strokeColor=#6c8ebf;fontStyle=1" vertex="1" parent="1">
          <mxGeometry x="2500" y="110" width="120" height="60" as="geometry" />
        </mxCell>
        <mxCell id="hgb0kMbkWvSOSXMyHwdC-14" value="Balance" style="whiteSpace=wrap;html=1;rounded=0;" vertex="1" parent="1">
          <mxGeometry x="2620" y="110" width="120" height="60" as="geometry" />
        </mxCell>
        <mxCell id="hgb0kMbkWvSOSXMyHwdC-15" value="Last payment date" style="whiteSpace=wrap;html=1;rounded=0;" vertex="1" parent="1">
          <mxGeometry x="2740" y="110" width="120" height="60" as="geometry" />
        </mxCell>
        <mxCell id="hgb0kMbkWvSOSXMyHwdC-16" value="Last payment amount" style="whiteSpace=wrap;html=1;rounded=0;" vertex="1" parent="1">
          <mxGeometry x="2860" y="110" width="120" height="60" as="geometry" />
        </mxCell>
        <mxCell id="hgb0kMbkWvSOSXMyHwdC-17" value="Type" style="whiteSpace=wrap;html=1;rounded=0;" vertex="1" parent="1">
          <mxGeometry x="2980" y="110" width="120" height="60" as="geometry" />
        </mxCell>
        <mxCell id="gJ_njp-WL6s4G3x5Zhv0-1" value="Code" style="rounded=0;whiteSpace=wrap;html=1;" vertex="1" parent="1">
          <mxGeometry x="2140" y="110" width="120" height="60" as="geometry" />
        </mxCell>
        <mxCell id="gJ_njp-WL6s4G3x5Zhv0-2" value="Sleep" style="rounded=0;whiteSpace=wrap;html=1;" vertex="1" parent="1">
          <mxGeometry x="2260" y="110" width="120" height="60" as="geometry" />
        </mxCell>
        <mxCell id="gJ_njp-WL6s4G3x5Zhv0-3" value="Talk" style="rounded=0;whiteSpace=wrap;html=1;" vertex="1" parent="1">
          <mxGeometry x="2380" y="110" width="120" height="60" as="geometry" />
        </mxCell>
        <mxCell id="gJ_njp-WL6s4G3x5Zhv0-4" value="Order" style="rounded=0;whiteSpace=wrap;html=1;fontStyle=1" vertex="1" parent="1">
          <mxGeometry x="3100" y="110" width="120" height="60" as="geometry" />
        </mxCell>
        <mxCell id="gJ_njp-WL6s4G3x5Zhv0-5" value="Order Date" style="rounded=0;whiteSpace=wrap;html=1;" vertex="1" parent="1">
          <mxGeometry x="3220" y="110" width="120" height="60" as="geometry" />
        </mxCell>
        <mxCell id="gJ_njp-WL6s4G3x5Zhv0-6" value="Credit Authorization Status" style="rounded=0;whiteSpace=wrap;html=1;" vertex="1" parent="1">
          <mxGeometry x="3340" y="110" width="120" height="60" as="geometry" />
        </mxCell>
      </root>
    </mxGraphModel>
  </diagram>
</mxfile>
